<svg width="18" height="21" viewBox="0 0 18 21" fill="none" xmlns="http://www.w3.org/2000/svg">
<path d="M6.58307 0.957421L5.54561 1.97372L13.8633 5.48893L9.41151 0.969424C8.63157 0.194699 7.3709 0.172166 6.58307 0.957421ZM2.40024 20.3596L15.3384 20.4427C15.7302 20.4497 16.1155 20.3421 16.4468 20.133C16.7782 19.924 17.0413 19.6226 17.2037 19.266C17.3049 19.0265 17.3639 18.7583 17.3638 18.476L17.4234 10.5001C17.4298 9.68856 16.9272 8.97678 16.2534 8.67029C16.0178 8.55987 15.7312 8.49303 15.4567 8.47472L2.50292 8.42841C2.11078 8.41613 1.72403 8.52218 1.39301 8.73275C1.06198 8.94332 0.802004 9.24867 0.646918 9.60904C0.545705 9.84853 0.499759 10.1114 0.48534 10.3767L0.429647 18.3434C0.423738 18.8721 0.628004 19.3814 0.997533 19.7595C1.36706 20.1376 1.87161 20.3534 2.40024 20.3596ZM5.18687 4.00424C4.69828 3.79775 4.14767 3.79382 3.65618 3.99329C3.16468 4.19277 2.77256 4.57933 2.56607 5.06792L2.00161 6.40354L11.0268 6.47228" fill="white"/>
</svg>
