<svg width="21" height="21" viewBox="0 0 21 21" fill="none" xmlns="http://www.w3.org/2000/svg">
<path d="M13.719 0.65852C13.2971 0.236863 12.725 0 12.1285 0C11.532 0 10.9599 0.236863 10.538 0.65852L0.659019 10.5385C0.450085 10.7475 0.284349 10.9955 0.171274 11.2685C0.0581989 11.5415 0 11.834 0 12.1295C0 12.425 0.0581989 12.7176 0.171274 12.9906C0.284349 13.2635 0.450085 13.5116 0.659019 13.7205L1.83102 14.8915C2.34102 15.4025 3.05802 15.3115 3.49102 15.0535C3.72987 14.9117 4.00916 14.8535 4.28479 14.888C4.56042 14.9226 4.81667 15.048 5.0131 15.2444C5.20952 15.4409 5.33492 15.6971 5.36949 15.9728C5.40407 16.2484 5.34584 16.5277 5.20402 16.7665C4.94702 17.1995 4.85502 17.9165 5.36602 18.4265L6.53902 19.5985C6.74795 19.8075 6.99599 19.9732 7.26898 20.0863C7.54196 20.1993 7.83454 20.2575 8.13002 20.2575C8.4255 20.2575 8.71808 20.1993 8.99106 20.0863C9.26405 19.9732 9.51209 19.8075 9.72102 19.5985L19.599 9.72052C19.808 9.51159 19.9737 9.26355 20.0868 8.99056C20.1998 8.71758 20.258 8.425 20.258 8.12952C20.258 7.83404 20.1998 7.54146 20.0868 7.26848C19.9737 6.99549 19.808 6.74745 19.599 6.53852L18.428 5.36652C17.918 4.85652 17.2 4.94652 16.767 5.20452C16.5282 5.34634 16.2489 5.40457 15.9733 5.36999C15.6976 5.33542 15.4414 5.21002 15.2449 5.0136C15.0485 4.81717 14.9231 4.56091 14.8885 4.28529C14.854 4.00966 14.9122 3.73037 15.054 3.49152C15.312 3.05852 15.403 2.34152 14.892 1.83152L13.72 0.65852H13.719Z" fill="white"/>
</svg>
